<svg height="512pt" viewBox="-20 0 512 512" width="512pt" xmlns="http://www.w3.org/2000/svg"><path d="m342.402344 512h-213.019532l-106.511718-213.023438h426.042968zm0 0" fill="#7b73d9"/><path d="m448.917969 298.972656-18.046875 36.097656-88.472656 176.929688h-106.507813v-213.027344zm0 0" fill="#6c65d4"/><path d="m421.457031 207.867188c-26.898437-76.535157-99.816406-131.417969-185.566406-131.417969s-158.667969 54.882812-185.566406 131.417969c-28.957031 7.566406-50.324219 33.902343-50.324219 65.21875 0 31.316406 21.367188 57.652343 50.324219 65.203124 5.457031 1.425782 11.171875 2.1875 17.078125 2.1875 12.269531 0 23.789062-3.285156 33.699218-9.011718 9.910157 5.726562 21.417969 9.011718 33.6875 9.011718 12.28125 0 23.789063-3.285156 33.714844-9.011718 9.910156 5.726562 21.417969 9.011718 33.6875 9.011718 12.269532 0 23.789063-3.285156 33.699219-9.011718 9.914063 5.726562 21.433594 9.011718 33.703125 9.011718s23.789062-3.285156 33.699219-9.011718c9.910156 5.726562 21.421875 9.011718 33.703125 9.011718 12.269531 0 23.789062-3.285156 33.699218-9.011718 9.910157 5.726562 21.417969 9.011718 33.6875 9.011718 5.90625 0 11.621094-.761718 17.078126-2.1875 28.957031-7.550781 50.324218-33.886718 50.324218-65.203124 0-31.316407-21.371094-57.652344-50.328125-65.21875zm0 0" fill="#e1f1fa"/><path d="m471.785156 273.085938c0 27.808593-16.851562 51.699218-40.914062 61.984374-3.035156 1.296876-6.179688 2.371094-9.410156 3.21875-5.457032 1.425782-11.171876 2.183594-17.078126 2.183594-12.269531 0-23.777343-3.28125-33.6875-9.011718-9.910156 5.730468-21.429687 9.011718-33.699218 9.011718-12.28125 0-23.792969-3.28125-33.703125-9.011718-9.910157 5.730468-21.429688 9.011718-33.699219 9.011718s-23.789062-3.28125-33.703125-9.011718v-255.011719c85.75 0 158.667969 54.882812 185.566406 131.417969 28.957031 7.566406 50.328125 33.902343 50.328125 65.21875zm0 0" fill="#c6dbe5"/><path d="m305.191406 83.597656-69.300781 69.300782-69.296875-69.300782c-30.582031-30.578125-9.105469-83.597656 34.652344-83.597656 12.554687 0 25.117187 4.738281 34.644531 14.265625 9.53125-9.527344 22.09375-14.265625 34.644531-14.265625 43.753906 0 65.238282 53.015625 34.65625 83.597656zm0 0" fill="#ff7cb9"/><path d="m319.484375 48.9375c0 12.566406-4.757813 25.125-14.289063 34.65625l-69.300781 69.300781v-138.632812c9.53125-9.53125 22.085938-14.25781275 34.644531-14.25781275 22.964844 0 48.945313 17.86328175 48.945313 48.93359375zm0 0" fill="#ff5e95"/></svg>